Crispy-parametric-NarrowBlackMinGrade-MaxShadow.ufo
<glyph name="B" format="2">
  <advance width="762"/>
  <unicode hex="0042"/>
  <outline>
    <contour>
      <point x="40" y="0" type="line" identifier="hvY9r8RmLr"/>
      <point x="732" y="0" type="line" identifier="9QFpw7nfq7"/>
      <point x="732" y="700" type="line" identifier="543PerILpr"/>
      <point x="659" y="797" type="line" identifier="zhomauHW30"/>
      <point x="659" y="799" type="line" identifier="870ZhtaozS"/>
      <point x="727" y="900" type="line" identifier="eGKH52Jgnk"/>
      <point x="727" y="1600" type="line" identifier="FaP204GrdB"/>
      <point x="40" y="1600" type="line" identifier="JEev70GAj6"/>
    </contour>
    <contour>
      <point x="279" y="915" type="line" identifier="By7dfMihfe"/>
      <point x="279" y="1364" type="line" identifier="1p5hKrurVy"/>
      <point x="487" y="1364" type="line" identifier="Qby8aMtF2X"/>
      <point x="487" y="970" type="line" identifier="9lW01gQyU2"/>
      <point x="448" y="915" type="line" identifier="xpxyvIzPoc"/>
    </contour>
    <contour>
      <point x="279" y="236" type="line" identifier="jaMSiLrCua"/>
      <point x="279" y="680" type="line" identifier="XSrxNd2axx"/>
      <point x="445" y="680" type="line" identifier="VyYlzRh5nq"/>
      <point x="493" y="629" type="line" identifier="lsRGatjQja"/>
      <point x="493" y="236" type="line" identifier="xhlDJ3CjD5"/>
    </contour>
  </outline>
</glyph>
<glyph name="C" format="2">
  <advance width="741"/>
  <unicode hex="0043"/>
  <outline>
    <contour>
      <point x="30" y="0" type="line" identifier="7lPhzTnk2Z"/>
      <point x="716" y="0" type="line" identifier="qJVLZGnkwh"/>
      <point x="716" y="503" type="line" identifier="nDnDHzAMXL"/>
      <point x="477" y="503" type="line" identifier="QX1V08aTu0"/>
      <point x="477" y="237" type="line" identifier="Y750RHTvDj"/>
      <point x="269" y="237" type="line" identifier="L2LsGnXiZ2"/>
      <point x="269" y="1111" type="line" identifier="sUWsr03vF4"/>
      <point x="319" y="1363" type="line" identifier="dbOUe6OhxL"/>
      <point x="477" y="1363" type="line" identifier="5BjRbcud80"/>
      <point x="477" y="957" type="line" identifier="fNVDqwQo2o"/>
      <point x="717" y="957" type="line" identifier="wLqQQx7QVN"/>
      <point x="717" y="1600" type="line" identifier="9eJelv8BOw"/>
      <point x="119" y="1600" type="line" identifier="lfZev3ICaC"/>
      <point x="30" y="1129" type="line" identifier="V1EWIdPahq"/>
    </contour>
  </outline>
</glyph>
<glyph name="E" format="2">
  <advance width="686"/>
  <unicode hex="0045"/>
  <outline>
    <contour>
      <point x="40" y="0" type="line" identifier="fZynkQ4XHB"/>
      <point x="663" y="0" type="line" identifier="FAQNpgUPxV"/>
      <point x="663" y="473" type="line" identifier="gHI0YjrPxR"/>
      <point x="454" y="473" type="line" identifier="gxCIuXb4el"/>
      <point x="454" y="236" type="line" identifier="5cgTYOhATF"/>
      <point x="279" y="236" type="line" identifier="bWs42DaCgU"/>
      <point x="279" y="680" type="line" identifier="VtD2aADJmn"/>
      <point x="581" y="680" type="line" identifier="PpbsFdHAnS"/>
      <point x="581" y="917" type="line" identifier="8WuC5p8Ax5"/>
      <point x="279" y="917" type="line" identifier="m39IWn9ntA"/>
      <point x="279" y="1364" type="line" identifier="gQ21I4SHQg"/>
      <point x="453" y="1364" type="line" identifier="eqNb2VTwYs"/>
      <point x="453" y="1098" type="line" identifier="mLmcFoJA4m"/>
      <point x="662" y="1098" type="line" identifier="e79n7CoPy1"/>
      <point x="662" y="1600" type="line" identifier="qYRmo14Il5"/>
      <point x="40" y="1600" type="line" identifier="HmJIcnLWfC"/>
    </contour>
  </outline>
</glyph>
<glyph name="S" format="2">
  <advance width="709"/>
  <unicode hex="0053"/>
  <outline>
    <contour>
      <point x="25" y="0" type="line" identifier="09VlJ0BjUX"/>
      <point x="685" y="0" type="line" identifier="EagWihqFM8"/>
      <point x="685" y="911" type="line" identifier="KfNuQA7eZe"/>
      <point x="261" y="911" type="line" identifier="At364YZFEy"/>
      <point x="261" y="1167" type="line"/>
      <point x="298" y="1364" type="line"/>
      <point x="446" y="1364" type="line" identifier="3ZUkG35meB"/>
      <point x="446" y="1081" type="line" identifier="DTOJhFIl15"/>
      <point x="685" y="1081" type="line" identifier="9KDcrfQ5Ui"/>
      <point x="685" y="1600" type="line" identifier="SaF9ojRFrW"/>
      <point x="112" y="1600" type="line"/>
      <point x="25" y="1182" type="line"/>
      <point x="25" y="674" type="line" identifier="3sQ8t8BZ6b"/>
      <point x="445" y="674" type="line" identifier="yiV6OCBLHg"/>
      <point x="445" y="236" type="line" identifier="9kdl9SYsn8"/>
      <point x="264" y="236" type="line" identifier="yZDWuX8LLe"/>
      <point x="264" y="481" type="line" identifier="jYb9001DTm"/>
      <point x="25" y="481" type="line" identifier="ho4DrS0rdW"/>
    </contour>
  </outline>
</glyph>
<glyph name="A.shadow" format="2">
  <advance width="691"/>
  <outline>
    <contour>
      <point x="482" y="598" type="line" smooth="yes" identifier="QVexAlbAcl"/>
      <point x="269" y="598" type="line" smooth="yes" identifier="viYRWe5UN7"/>
      <point x="269" y="548" type="line"/>
      <point x="432" y="548" type="line"/>
      <point x="432" y="-50" type="line"/>
      <point x="671" y="-50" type="line"/>
      <point x="721" y="0" type="line" smooth="yes" identifier="kpn4Kw9J0C"/>
      <point x="482" y="0" type="line" smooth="yes" identifier="ZgsCdxNJRW"/>
    </contour>
    <contour>
      <point x="432" y="1313" type="line"/>
      <point x="432" y="835" type="line"/>
      <point x="482" y="835" type="line" smooth="yes" identifier="eTe9B4y76W"/>
      <point x="482" y="1363" type="line" smooth="yes" identifier="tUsW8L7b0y"/>
      <point x="318" y="1363" type="line" smooth="yes" identifier="FsYtJ2vFnp"/>
      <point x="269" y="1167" type="line" smooth="yes" identifier="VufvPdJ075"/>
      <point x="306" y="1313" type="line"/>
    </contour>
    <contour>
      <point x="30" y="0" type="line" smooth="yes" identifier="jFq8ta4UUc"/>
      <point x="30" y="1170" type="line" smooth="yes" identifier="dqVr87m3uJ"/>
      <point x="130" y="1600" type="line" smooth="yes" identifier="iDT0uyhKrn"/>
      <point x="80" y="1550" type="line"/>
      <point x="-20" y="1120" type="line"/>
      <point x="-20" y="-50" type="line"/>
      <point x="219" y="-50" type="line"/>
      <point x="269" y="0" type="line" smooth="yes" identifier="dQz4RxYhG4"/>
    </contour>
  </outline>
</glyph>
<glyph name="B.narrow" format="2">
  <advance width="762"/>
  <outline>
    <contour>
      <point x="40" y="0" type="line" identifier="hvY9r8RmLr"/>
      <point x="732" y="0" type="line" identifier="9QFpw7nfq7"/>
      <point x="732" y="693" type="line" identifier="543PerILpr"/>
      <point x="654" y="783" type="line" identifier="870ZhtaozS"/>
      <point x="726" y="821" type="line" identifier="eGKH52Jgnk"/>
      <point x="726" y="1600" type="line" identifier="FaP204GrdB"/>
      <point x="40" y="1600" type="line" identifier="JEev70GAj6"/>
    </contour>
    <contour>
      <point x="279" y="874" type="line" identifier="By7dfMihfe"/>
      <point x="279" y="1364" type="line" identifier="1p5hKrurVy"/>
      <point x="487" y="1364" type="line" identifier="Qby8aMtF2X"/>
      <point x="487" y="924" type="line" identifier="9lW01gQyU2"/>
    </contour>
    <contour>
      <point x="279" y="236" type="line" identifier="jaMSiLrCua"/>
      <point x="279" y="668" type="line" identifier="XSrxNd2axx"/>
      <point x="426" y="693" type="line" identifier="VyYlzRh5nq"/>
      <point x="492" y="613" type="line" identifier="lsRGatjQja"/>
      <point x="492" y="236" type="line" identifier="xhlDJ3CjD5"/>
    </contour>
  </outline>
</glyph>
<glyph name="B.narrow.shadow" format="2">
  <advance width="692"/>
  <outline>
    <contour>
      <point x="732" y="693" type="line" identifier="543PerILpr"/>
      <point x="668" y="767" type="line"/>
      <point x="676" y="771" type="line"/>
      <point x="726" y="821" type="line" identifier="eGKH52Jgnk"/>
      <point x="654" y="783" type="line" identifier="870ZhtaozS"/>
    </contour>
    <contour>
      <point x="279" y="874" type="line" identifier="By7dfMihfe"/>
      <point x="487" y="924" type="line" identifier="9lW01gQyU2"/>
      <point x="487" y="1364" type="line" identifier="Qby8aMtF2X"/>
      <point x="279" y="1364" type="line" identifier="1p5hKrurVy"/>
      <point x="279" y="1314" type="line"/>
      <point x="437" y="1314" type="line"/>
      <point x="437" y="912" type="line"/>
    </contour>
    <contour>
      <point x="442" y="563" type="line"/>
      <point x="442" y="236" type="line"/>
      <point x="492" y="236" type="line" identifier="xhlDJ3CjD5"/>
      <point x="492" y="613" type="line" identifier="lsRGatjQja"/>
      <point x="426" y="693" type="line" identifier="VyYlzRh5nq"/>
      <point x="279" y="668" type="line" identifier="XSrxNd2axx"/>
      <point x="279" y="627" type="line"/>
      <point x="376" y="643" type="line"/>
    </contour>
    <contour>
      <point x="40" y="0" type="line" identifier="hvY9r8RmLr"/>
      <point x="40" y="1600" type="line" identifier="JEev70GAj6"/>
      <point x="-10" y="1550" type="line"/>
      <point x="-10" y="-50" type="line"/>
      <point x="682" y="-50" type="line"/>
      <point x="732" y="0" type="line" identifier="9QFpw7nfq7"/>
    </contour>
  </outline>
</glyph>
<glyph name="B.shadow" format="2">
  <advance width="692"/>
  <outline>
    <contour>
      <point x="437" y="920" type="line"/>
      <point x="433" y="915" type="line"/>
      <point x="448" y="915" type="line" identifier="xpxyvIzPoc"/>
      <point x="487" y="970" type="line" identifier="9lW01gQyU2"/>
      <point x="487" y="1364" type="line" identifier="Qby8aMtF2X"/>
      <point x="279" y="1364" type="line" identifier="1p5hKrurVy"/>
      <point x="279" y="1314" type="line"/>
      <point x="437" y="1314" type="line"/>
    </contour>
    <contour>
      <point x="443" y="579" type="line"/>
      <point x="443" y="236" type="line"/>
      <point x="493" y="236" type="line" identifier="xhlDJ3CjD5"/>
      <point x="493" y="629" type="line" identifier="lsRGatjQja"/>
      <point x="445" y="680" type="line" identifier="VyYlzRh5nq"/>
      <point x="279" y="680" type="line" identifier="XSrxNd2axx"/>
      <point x="279" y="630" type="line"/>
      <point x="395" y="630" type="line"/>
    </contour>
    <contour>
      <point x="40" y="0" type="line" identifier="hvY9r8RmLr"/>
      <point x="40" y="1600" type="line" identifier="JEev70GAj6"/>
      <point x="-10" y="1550" type="line"/>
      <point x="-10" y="-50" type="line"/>
      <point x="682" y="-50" type="line"/>
      <point x="732" y="0" type="line" identifier="9QFpw7nfq7"/>
    </contour>
  </outline>
</glyph>
<glyph name="C.shadow" format="2">
  <advance width="671"/>
  <outline>
    <contour>
      <point x="477" y="1363" type="line" identifier="5BjRbcud80"/>
      <point x="319" y="1363" type="line" identifier="dbOUe6OhxL"/>
      <point x="309" y="1313" type="line"/>
      <point x="427" y="1313" type="line"/>
      <point x="427" y="907" type="line"/>
      <point x="667" y="907" type="line"/>
      <point x="717" y="957" type="line" identifier="wLqQQx7QVN"/>
      <point x="477" y="957" type="line" identifier="fNVDqwQo2o"/>
    </contour>
    <contour>
      <point x="309" y="1313" type="line"/>
      <point x="269" y="1111" type="line" identifier="sUWsr03vF4"/>
      <point x="309" y="1313" type="line"/>
    </contour>
    <contour>
      <point x="30" y="0" type="line" identifier="7lPhzTnk2Z"/>
      <point x="30" y="1129" type="line" identifier="V1EWIdPahq"/>
      <point x="119" y="1600" type="line" identifier="lfZev3ICaC"/>
      <point x="69" y="1550" type="line"/>
      <point x="-20" y="1079" type="line"/>
      <point x="-20" y="-50" type="line"/>
      <point x="666" y="-50" type="line"/>
      <point x="716" y="0" type="line" identifier="qJVLZGnkwh"/>
    </contour>
    <contour>
      <point x="427" y="237" type="line"/>
      <point x="477" y="237" type="line" identifier="Y750RHTvDj"/>
      <point x="477" y="503" type="line" identifier="QX1V08aTu0"/>
      <point x="427" y="453" type="line"/>
    </contour>
  </outline>
</glyph>
<glyph name="C.wide" format="2">
  <advance width="751"/>
  <outline>
    <contour>
      <point x="42" y="0" type="line" identifier="7lPhzTnk2Z"/>
      <point x="728" y="0" type="line" identifier="qJVLZGnkwh"/>
      <point x="728" y="239" type="line" identifier="Y750RHTvDj"/>
      <point x="281" y="239" type="line" identifier="L2LsGnXiZ2"/>
      <point x="281" y="1109" type="line" identifier="sUWsr03vF4"/>
      <point x="330" y="1361" type="line" identifier="dbOUe6OhxL"/>
      <point x="727" y="1361" type="line" identifier="5BjRbcud80"/>
      <point x="727" y="1600" type="line" identifier="9eJelv8BOw"/>
      <point x="130" y="1600" type="line" identifier="lfZev3ICaC"/>
      <point x="42" y="1129" type="line" identifier="V1EWIdPahq"/>
    </contour>
  </outline>
</glyph>
<glyph name="C.wide.shadow" format="2">
  <advance width="682"/>
  <outline>
    <contour>
      <point x="320" y="1311" type="line"/>
      <point x="281" y="1109" type="line" identifier="sUWsr03vF4"/>
      <point x="320" y="1311" type="line"/>
      <point x="677" y="1311" type="line"/>
      <point x="727" y="1361" type="line" identifier="5BjRbcud80"/>
      <point x="330" y="1361" type="line" identifier="dbOUe6OhxL"/>
      <point x="320" y="1311" type="line"/>
    </contour>
    <contour>
      <point x="42" y="0" type="line" identifier="7lPhzTnk2Z"/>
      <point x="42" y="1129" type="line" identifier="V1EWIdPahq"/>
      <point x="130" y="1600" type="line" identifier="lfZev3ICaC"/>
      <point x="80" y="1550" type="line"/>
      <point x="-8" y="1079" type="line"/>
      <point x="-8" y="-50" type="line"/>
      <point x="678" y="-50" type="line"/>
      <point x="728" y="0" type="line" identifier="qJVLZGnkwh"/>
    </contour>
  </outline>
</glyph>
<glyph name="D.shadow" format="2">
  <advance width="696"/>
  <outline>
    <contour>
      <point x="447" y="357" type="line"/>
      <point x="398" y="237" type="line"/>
      <point x="427" y="237" type="line" identifier="DiLdvAK6bW"/>
      <point x="497" y="407" type="line" identifier="5OFemp6E2Y"/>
      <point x="497" y="1362" type="line" identifier="4w8cXO1HlF"/>
      <point x="279" y="1362" type="line" identifier="OGdfzPVlic"/>
      <point x="279" y="1312" type="line"/>
      <point x="447" y="1312" type="line"/>
    </contour>
    <contour>
      <point x="40" y="1600" type="line" identifier="gh4oopoKIn"/>
      <point x="-10" y="1550" type="line"/>
      <point x="-10" y="-50" type="line"/>
      <point x="554" y="-50" type="line"/>
      <point x="604" y="0" type="line" identifier="IF8msvcgce"/>
      <point x="40" y="0" type="line" identifier="hTYdJwlqIh"/>
    </contour>
  </outline>
</glyph>
<glyph name="E.shadow" format="2">
  <advance width="617"/>
  <outline>
    <contour>
      <point x="453" y="1364" type="line" identifier="eqNb2VTwYs"/>
      <point x="279" y="1364" type="line" identifier="gQ21I4SHQg"/>
      <point x="279" y="1314" type="line"/>
      <point x="403" y="1314" type="line"/>
      <point x="403" y="1048" type="line"/>
      <point x="612" y="1048" type="line"/>
      <point x="662" y="1098" type="line" identifier="e79n7CoPy1"/>
      <point x="453" y="1098" type="line" identifier="mLmcFoJA4m"/>
    </contour>
    <contour>
      <point x="40" y="0" type="line" identifier="fZynkQ4XHB"/>
      <point x="40" y="1600" type="line" identifier="HmJIcnLWfC"/>
      <point x="-10" y="1550" type="line"/>
      <point x="-10" y="-50" type="line"/>
      <point x="613" y="-50" type="line"/>
      <point x="663" y="0" type="line" identifier="FAQNpgUPxV"/>
    </contour>
    <contour>
      <point x="279" y="630" type="line"/>
      <point x="531" y="630" type="line"/>
      <point x="581" y="680" type="line" identifier="PpbsFdHAnS"/>
      <point x="279" y="680" type="line" identifier="VtD2aADJmn"/>
    </contour>
    <contour>
      <point x="404" y="236" type="line"/>
      <point x="454" y="236" type="line" identifier="5cgTYOhATF"/>
      <point x="454" y="473" type="line" identifier="gxCIuXb4el"/>
      <point x="404" y="423" type="line"/>
    </contour>
  </outline>
</glyph>
<glyph name="E.wide" format="2">
  <advance width="605"/>
  <outline>
    <contour>
      <point x="40" y="0" type="line" identifier="fZynkQ4XHB"/>
      <point x="582" y="0" type="line" identifier="FAQNpgUPxV"/>
      <point x="582" y="227" type="line" identifier="5cgTYOhATF"/>
      <point x="279" y="227" type="line" identifier="bWs42DaCgU"/>
      <point x="279" y="692" type="line" identifier="VtD2aADJmn"/>
      <point x="551" y="692" type="line" identifier="PpbsFdHAnS"/>
      <point x="551" y="908" type="line" identifier="8WuC5p8Ax5"/>
      <point x="279" y="908" type="line" identifier="m39IWn9ntA"/>
      <point x="279" y="1378" type="line" identifier="gQ21I4SHQg"/>
      <point x="581" y="1378" type="line" identifier="eqNb2VTwYs"/>
      <point x="581" y="1600" type="line" identifier="qYRmo14Il5"/>
      <point x="40" y="1600" type="line" identifier="HmJIcnLWfC"/>
    </contour>
  </outline>
</glyph>
<glyph name="E.wide.shadow" format="2">
  <advance width="536"/>
  <outline>
    <contour>
      <point x="279" y="1328" type="line"/>
      <point x="531" y="1328" type="line"/>
      <point x="581" y="1378" type="line" identifier="eqNb2VTwYs"/>
      <point x="279" y="1378" type="line" identifier="gQ21I4SHQg"/>
    </contour>
    <contour>
      <point x="279" y="642" type="line"/>
      <point x="501" y="642" type="line"/>
      <point x="551" y="692" type="line" identifier="PpbsFdHAnS"/>
      <point x="279" y="692" type="line" identifier="VtD2aADJmn"/>
    </contour>
    <contour>
      <point x="40" y="0" type="line" identifier="fZynkQ4XHB"/>
      <point x="40" y="1600" type="line" identifier="HmJIcnLWfC"/>
      <point x="-10" y="1550" type="line"/>
      <point x="-10" y="-50" type="line"/>
      <point x="532" y="-50" type="line"/>
      <point x="582" y="0" type="line" identifier="FAQNpgUPxV"/>
    </contour>
  </outline>
</glyph>
<glyph name="F.shadow" format="2">
  <advance width="652"/>
  <outline>
    <contour>
      <point x="459" y="1363" type="line" identifier="4E754ovOIe"/>
      <point x="279" y="1363" type="line" identifier="ZvzwyrcwpS"/>
      <point x="279" y="1313" type="line"/>
      <point x="409" y="1313" type="line"/>
      <point x="409" y="1023" type="line"/>
      <point x="648" y="1023" type="line"/>
      <point x="698" y="1073" type="line" identifier="0tk7G4orz6"/>
      <point x="459" y="1073" type="line" identifier="vZkeT9KrKR"/>
    </contour>
    <contour>
      <point x="40" y="0" type="line" identifier="oAgH2tA6DJ"/>
      <point x="40" y="1600" type="line" identifier="TBAYuCfUFX"/>
      <point x="-10" y="1550" type="line"/>
      <point x="-10" y="-50" type="line"/>
      <point x="229" y="-50" type="line"/>
      <point x="279" y="0" type="line" identifier="zCZyMcW5ho"/>
    </contour>
    <contour>
      <point x="595" y="644" type="line" identifier="NmB7yyQuio"/>
      <point x="279" y="644" type="line" identifier="yHYqkMd7LI"/>
      <point x="279" y="594" type="line"/>
      <point x="545" y="594" type="line"/>
    </contour>
  </outline>
</glyph>
<glyph name="F.wide.shadow" format="2">
  <advance width="609"/>
  <outline>
    <contour>
      <point x="279" y="1313" type="line"/>
      <point x="605" y="1313" type="line"/>
      <point x="655" y="1363" type="line" identifier="4E754ovOIe"/>
      <point x="279" y="1363" type="line" identifier="ZvzwyrcwpS"/>
    </contour>
    <contour>
      <point x="40" y="0" type="line" identifier="oAgH2tA6DJ"/>
      <point x="40" y="1600" type="line" identifier="TBAYuCfUFX"/>
      <point x="-10" y="1550" type="line"/>
      <point x="-10" y="-50" type="line"/>
      <point x="229" y="-50" type="line"/>
      <point x="279" y="0" type="line" identifier="zCZyMcW5ho"/>
    </contour>
    <contour>
      <point x="613" y="550" type="line" identifier="NmB7yyQuio"/>
      <point x="279" y="550" type="line" identifier="yHYqkMd7LI"/>
      <point x="279" y="500" type="line"/>
      <point x="563" y="500" type="line"/>
    </contour>
  </outline>
</glyph>
<glyph name="G.shadow" format="2">
  <advance width="671"/>
  <outline>
    <contour>
      <point x="475" y="1364" type="line" identifier="5BjRbcud80"/>
      <point x="314" y="1364" type="line" identifier="dbOUe6OhxL"/>
      <point x="269" y="1148" type="line" identifier="sUWsr03vF4"/>
      <point x="304" y="1314" type="line"/>
      <point x="425" y="1314" type="line"/>
      <point x="425" y="1014" type="line"/>
      <point x="665" y="1014" type="line"/>
      <point x="715" y="1064" type="line" identifier="wLqQQx7QVN"/>
      <point x="475" y="1064" type="line" identifier="fNVDqwQo2o"/>
    </contour>
    <contour>
      <point x="30" y="0" type="line" identifier="7lPhzTnk2Z"/>
      <point x="30" y="1157" type="line" identifier="V1EWIdPahq"/>
      <point x="111" y="1600" type="line" identifier="lfZev3ICaC"/>
      <point x="61" y="1550" type="line"/>
      <point x="-20" y="1107" type="line"/>
      <point x="-20" y="-50" type="line"/>
      <point x="667" y="-50" type="line"/>
      <point x="717" y="0" type="line" identifier="qJVLZGnkwh"/>
    </contour>
    <contour>
      <point x="329" y="607" type="line"/>
      <point x="428" y="607" type="line"/>
      <point x="428" y="236" type="line"/>
      <point x="478" y="236" type="line" identifier="Y750RHTvDj"/>
      <point x="478" y="657" type="line" identifier="4m6dHLVhZq"/>
      <point x="379" y="657" type="line" identifier="EARaY3Su65"/>
      <point x="379" y="894" type="line" identifier="qcvimxjndX"/>
      <point x="329" y="844" type="line"/>
    </contour>
  </outline>
</glyph>
<glyph name="G.wide" format="2">
  <advance width="757"/>
  <outline>
    <contour>
      <point x="30" y="0" type="line" identifier="7lPhzTnk2Z"/>
      <point x="719" y="0" type="line" identifier="qJVLZGnkwh"/>
      <point x="719" y="864" type="line" identifier="uek1NNj7De"/>
      <point x="387" y="864" type="line" identifier="qcvimxjndX"/>
      <point x="387" y="671" type="line" identifier="EARaY3Su65"/>
      <point x="482" y="671" type="line" identifier="4m6dHLVhZq"/>
      <point x="482" y="236" type="line" identifier="Y750RHTvDj"/>
      <point x="269" y="236" type="line" identifier="L2LsGnXiZ2"/>
      <point x="269" y="1148" type="line" identifier="sUWsr03vF4"/>
      <point x="311" y="1364" type="line" identifier="dbOUe6OhxL"/>
      <point x="719" y="1364" type="line" identifier="5BjRbcud80"/>
      <point x="719" y="1600" type="line" identifier="9eJelv8BOw"/>
      <point x="103" y="1600" type="line" identifier="lfZev3ICaC"/>
      <point x="30" y="1157" type="line" identifier="V1EWIdPahq"/>
    </contour>
  </outline>
</glyph>
<glyph name="G.wide.shadow" format="2">
  <advance width="687"/>
  <outline>
    <contour>
      <point x="301" y="1314" type="line"/>
      <point x="269" y="1148" type="line" identifier="sUWsr03vF4"/>
      <point x="301" y="1314" type="line"/>
      <point x="669" y="1314" type="line"/>
      <point x="719" y="1364" type="line" identifier="5BjRbcud80"/>
      <point x="311" y="1364" type="line" identifier="dbOUe6OhxL"/>
      <point x="301" y="1314" type="line"/>
    </contour>
    <contour>
      <point x="30" y="0" type="line" identifier="7lPhzTnk2Z"/>
      <point x="30" y="1157" type="line" identifier="V1EWIdPahq"/>
      <point x="103" y="1600" type="line" identifier="lfZev3ICaC"/>
      <point x="53" y="1550" type="line"/>
      <point x="-20" y="1107" type="line"/>
      <point x="-20" y="-50" type="line"/>
      <point x="669" y="-50" type="line"/>
      <point x="719" y="0" type="line" identifier="qJVLZGnkwh"/>
    </contour>
    <contour>
      <point x="337" y="621" type="line"/>
      <point x="432" y="621" type="line"/>
      <point x="432" y="236" type="line"/>
      <point x="482" y="236" type="line" identifier="Y750RHTvDj"/>
      <point x="482" y="671" type="line" identifier="4m6dHLVhZq"/>
      <point x="387" y="671" type="line" identifier="EARaY3Su65"/>
      <point x="387" y="864" type="line" identifier="qcvimxjndX"/>
      <point x="337" y="814" type="line"/>
    </contour>
  </outline>
</glyph>
<glyph name="H.shadow" format="2">
  <advance width="701"/>
  <outline>
    <contour>
      <point x="492" y="681" type="line" identifier="7JgTtdb0jg"/>
      <point x="279" y="681" type="line" identifier="QjywsYY2yB"/>
      <point x="279" y="631" type="line"/>
      <point x="442" y="631" type="line"/>
      <point x="442" y="-50" type="line"/>
      <point x="681" y="-50" type="line"/>
      <point x="731" y="0" type="line" identifier="oOtn61SmRY"/>
      <point x="492" y="0" type="line" identifier="njzlIRBsoY"/>
    </contour>
    <contour>
      <point x="442" y="919" type="line"/>
      <point x="492" y="919" type="line" identifier="MTAeavIVWY"/>
      <point x="492" y="1600" type="line" identifier="db0bPhBdaU"/>
      <point x="442" y="1550" type="line"/>
    </contour>
    <contour>
      <point x="40" y="0" type="line" identifier="uqAJBjDIOT"/>
      <point x="40" y="1600" type="line" identifier="ZnCDQVdtyD"/>
      <point x="-10" y="1550" type="line"/>
      <point x="-10" y="-50" type="line"/>
      <point x="229" y="-50" type="line"/>
      <point x="279" y="0" type="line" identifier="WUaPOcaxKT"/>
    </contour>
  </outline>
</glyph>
<glyph name="I.narrow.shadow" format="2">
  <advance width="248"/>
  <outline>
    <contour>
      <point x="278" y="0" type="line" identifier="1m237t4hyw"/>
      <point x="39" y="0" type="line" identifier="S4rO5KuHiL"/>
      <point x="39" y="1600" type="line" identifier="zfocDyDTCM"/>
      <point x="-11" y="1550" type="line"/>
      <point x="-11" y="-50" type="line"/>
      <point x="228" y="-50" type="line"/>
    </contour>
  </outline>
</glyph>
<glyph name="I.shadow" format="2">
  <advance width="506"/>
  <outline>
    <contour>
      <point x="408" y="1313" type="line"/>
      <point x="502" y="1313" type="line"/>
      <point x="552" y="1363" type="line" identifier="9RiQmr3G8U"/>
      <point x="408" y="1363" type="line" identifier="v7N4yg5XNk"/>
    </contour>
    <contour>
      <point x="24" y="0" type="line" identifier="u8XZE2STzL"/>
      <point x="24" y="237" type="line" identifier="aCoxe3fSmw"/>
      <point x="-26" y="187" type="line"/>
      <point x="-26" y="-50" type="line"/>
      <point x="502" y="-50" type="line"/>
      <point x="552" y="0" type="line" identifier="1Ty0JfMohF"/>
    </contour>
    <contour>
      <point x="-26" y="1313" type="line"/>
      <point x="118" y="1313" type="line"/>
      <point x="118" y="237" type="line"/>
      <point x="168" y="237" type="line" identifier="S4rO5KuHiL"/>
      <point x="168" y="1363" type="line" identifier="zfocDyDTCM"/>
      <point x="24" y="1363" type="line" identifier="O5ZoWKLuW7"/>
      <point x="24" y="1600" type="line" identifier="PL3Zqx19x8"/>
      <point x="-26" y="1550" type="line"/>
    </contour>
  </outline>
</glyph>
<glyph name="J.shadow" format="2">
  <advance width="664"/>
  <outline>
    <contour>
      <point x="-6" y="1313" type="line"/>
      <point x="404" y="1313" type="line"/>
      <point x="404" y="237" type="line"/>
      <point x="454" y="237" type="line" identifier="zFXsE8BUYG"/>
      <point x="454" y="1363" type="line" identifier="46RrD1WET2"/>
      <point x="44" y="1363" type="line" identifier="AdYfGKx8QJ"/>
      <point x="44" y="1600" type="line" identifier="TbrXnCyMEi"/>
      <point x="-6" y="1550" type="line"/>
    </contour>
    <contour>
      <point x="77" y="0" type="line" identifier="jiO9eX9U07"/>
      <point x="24" y="714" type="line" identifier="7exNZv1XSc"/>
      <point x="-26" y="664" type="line"/>
      <point x="27" y="-50" type="line"/>
      <point x="644" y="-50" type="line"/>
      <point x="694" y="0" type="line" identifier="wgpFs1yguc"/>
    </contour>
  </outline>
</glyph>
<glyph name="K.alt" format="2">
  <advance width="784"/>
  <outline>
    <contour>
      <point x="287" y="0" type="line" identifier="wmNm7XZsaF"/>
      <point x="287" y="694" type="line" identifier="O22liaP9Qk"/>
      <point x="441" y="694" type="line" identifier="ELFBWIb1vd"/>
      <point x="498" y="648" type="line" identifier="DzXo67YEfw"/>
      <point x="498" y="0" type="line" identifier="aKpYWD78l2"/>
      <point x="737" y="0" type="line" identifier="ChS7KlqGi6"/>
      <point x="737" y="789" type="line" identifier="sWLgkU8Vey"/>
      <point x="653" y="861" type="line" identifier="Of0iQc0wBG"/>
      <point x="731" y="1600" type="line" identifier="dMJ1ywOKQQ"/>
      <point x="494" y="1600" type="line" identifier="08OWjR2YBJ"/>
      <point x="444" y="932" type="line" identifier="g4YLdZEoM3"/>
      <point x="287" y="932" type="line" identifier="uZuki3Isec"/>
      <point x="287" y="1600" type="line" identifier="nRfcNgqJ4H"/>
      <point x="47" y="1600" type="line" identifier="3XJlWt89ad"/>
      <point x="47" y="0" type="line" identifier="wdbO8kCovY"/>
    </contour>
  </outline>
</glyph>
<glyph name="K.alt.shadow" format="2">
  <advance width="715"/>
  <outline>
    <contour>
      <point x="398" y="932" type="line"/>
      <point x="444" y="932" type="line" identifier="g4YLdZEoM3"/>
      <point x="494" y="1600" type="line" identifier="08OWjR2YBJ"/>
      <point x="444" y="1550" type="line"/>
    </contour>
    <contour>
      <point x="498" y="648" type="line" identifier="DzXo67YEfw"/>
      <point x="441" y="694" type="line" identifier="ELFBWIb1vd"/>
      <point x="287" y="694" type="line" identifier="O22liaP9Qk"/>
      <point x="287" y="644" type="line"/>
      <point x="391" y="644" type="line"/>
      <point x="448" y="598" type="line"/>
      <point x="448" y="-50" type="line"/>
      <point x="687" y="-50" type="line"/>
      <point x="737" y="0" type="line" identifier="ChS7KlqGi6"/>
      <point x="498" y="0" type="line" identifier="aKpYWD78l2"/>
    </contour>
    <contour>
      <point x="287" y="0" type="line" identifier="wmNm7XZsaF"/>
      <point x="47" y="0" type="line" identifier="wdbO8kCovY"/>
      <point x="47" y="1600" type="line" identifier="3XJlWt89ad"/>
      <point x="-3" y="1550" type="line"/>
      <point x="-3" y="-50" type="line"/>
      <point x="237" y="-50" type="line"/>
    </contour>
  </outline>
</glyph>
<glyph name="K.narrow" format="2">
  <advance width="775"/>
  <outline>
    <contour>
      <point x="279" y="0" type="line"/>
      <point x="279" y="688" type="line"/>
      <point x="447" y="727" type="line"/>
      <point x="516" y="0" type="line"/>
      <point x="745" y="0" type="line"/>
      <point x="644" y="833" type="line"/>
      <point x="720" y="859" type="line"/>
      <point x="720" y="1600" type="line"/>
      <point x="481" y="1600" type="line"/>
      <point x="481" y="980" type="line"/>
      <point x="279" y="925" type="line"/>
      <point x="279" y="1600" type="line"/>
      <point x="40" y="1600" type="line"/>
      <point x="40" y="0" type="line"/>
    </contour>
  </outline>
</glyph>
<glyph name="K.narrow.shadow" format="2">
  <advance width="705"/>
  <outline>
    <contour>
      <point x="745" y="0" type="line"/>
      <point x="516" y="0" type="line"/>
      <point x="447" y="727" type="line"/>
      <point x="279" y="688" type="line"/>
      <point x="279" y="650" type="line"/>
      <point x="397" y="677" type="line"/>
      <point x="466" y="-50" type="line"/>
      <point x="695" y="-50" type="line"/>
      <point x="745" y="0" type="line"/>
      <point x="648" y="801" type="line"/>
      <point x="670" y="809" type="line"/>
      <point x="720" y="859" type="line"/>
      <point x="644" y="833" type="line"/>
    </contour>
    <contour>
      <point x="481" y="980" type="line"/>
      <point x="481" y="1600" type="line"/>
      <point x="431" y="1550" type="line"/>
      <point x="431" y="966" type="line"/>
      <point x="279" y="925" type="line"/>
      <point x="431" y="966" type="line"/>
      <point x="431" y="966" type="line"/>
    </contour>
    <contour>
      <point x="279" y="0" type="line"/>
      <point x="40" y="0" type="line"/>
      <point x="40" y="1600" type="line"/>
      <point x="-10" y="1550" type="line"/>
      <point x="-10" y="-50" type="line"/>
      <point x="229" y="-50" type="line"/>
    </contour>
  </outline>
</glyph>
<glyph name="K.shadow" format="2">
  <advance width="688"/>
  <outline>
    <contour>
      <point x="429" y="918" type="line" identifier="g4YLdZEoM3"/>
      <point x="435" y="923" type="line"/>
      <point x="435" y="923" type="line"/>
      <point x="485" y="967" type="line" identifier="F62GU90G6q"/>
      <point x="485" y="1600" type="line" identifier="08OWjR2YBJ"/>
      <point x="435" y="1550" type="line"/>
      <point x="435" y="923" type="line"/>
    </contour>
    <contour>
      <point x="489" y="629" type="line" identifier="DzXo67YEfw"/>
      <point x="429" y="681" type="line" identifier="ELFBWIb1vd"/>
      <point x="279" y="681" type="line" identifier="O22liaP9Qk"/>
      <point x="279" y="631" type="line"/>
      <point x="379" y="631" type="line"/>
      <point x="439" y="579" type="line"/>
      <point x="439" y="-50" type="line"/>
      <point x="678" y="-50" type="line"/>
      <point x="728" y="0" type="line" identifier="ChS7KlqGi6"/>
      <point x="489" y="0" type="line" identifier="aKpYWD78l2"/>
    </contour>
    <contour>
      <point x="279" y="0" type="line" identifier="wmNm7XZsaF"/>
      <point x="40" y="0" type="line" identifier="wdbO8kCovY"/>
      <point x="40" y="1600" type="line" identifier="3XJlWt89ad"/>
      <point x="-10" y="1550" type="line"/>
      <point x="-10" y="-50" type="line"/>
      <point x="229" y="-50" type="line"/>
    </contour>
  </outline>
</glyph>
<glyph name="L.shadow" format="2">
  <advance width="642"/>
  <outline>
    <contour>
      <point x="40" y="0" type="line" identifier="XkJNfQlnnt"/>
      <point x="40" y="1600" type="line" identifier="XFf4mMUzYo"/>
      <point x="-10" y="1550" type="line"/>
      <point x="-10" y="-50" type="line"/>
      <point x="638" y="-50" type="line"/>
      <point x="688" y="0" type="line" identifier="82EXZEgt46"/>
    </contour>
    <contour>
      <point x="399" y="237" type="line"/>
      <point x="449" y="237" type="line" identifier="cqpSxwFiM3"/>
      <point x="449" y="563" type="line" identifier="t7Q9RRLHt8"/>
      <point x="399" y="513" type="line"/>
    </contour>
  </outline>
</glyph>
<glyph name="L.wide.shadow" format="2">
  <advance width="595"/>
  <outline>
    <contour>
      <point x="45" y="0" type="line" identifier="XkJNfQlnnt"/>
      <point x="45" y="1600" type="line" identifier="XFf4mMUzYo"/>
      <point x="-5" y="1550" type="line"/>
      <point x="-5" y="-50" type="line"/>
      <point x="591" y="-50" type="line"/>
      <point x="641" y="0" type="line" identifier="82EXZEgt46"/>
    </contour>
  </outline>
</glyph>
<glyph name="M.narrow.shadow" format="2">
  <advance width="1037"/>
  <outline>
    <contour>
      <point x="838" y="0" type="line" smooth="yes" identifier="12Pyby1xY2"/>
      <point x="838" y="1363" type="line" identifier="iqeTRv7HXg"/>
      <point x="679" y="1363" type="line" identifier="GlWB6PG54Z"/>
      <point x="679" y="1313" type="line"/>
      <point x="788" y="1313" type="line"/>
      <point x="788" y="-50" type="line"/>
      <point x="1027" y="-50" type="line"/>
      <point x="1077" y="0" type="line" smooth="yes" identifier="5LJg4ajoG6"/>
    </contour>
    <contour>
      <point x="439" y="1363" type="line" identifier="Ljn2lpvpG8"/>
      <point x="323" y="1363" type="line" smooth="yes" identifier="oee4nqI8Wl"/>
      <point x="279" y="1208" type="line" smooth="yes" identifier="WWvGwSpq0g"/>
      <point x="309" y="1313" type="line"/>
      <point x="389" y="1313" type="line"/>
      <point x="389" y="50" type="line"/>
      <point x="629" y="50" type="line"/>
      <point x="679" y="100" type="line"/>
      <point x="439" y="100" type="line" smooth="yes"/>
    </contour>
    <contour>
      <point x="-10" y="1161" type="line"/>
      <point x="-10" y="-50" type="line"/>
      <point x="229" y="-50" type="line"/>
      <point x="279" y="0" type="line" identifier="JfSFAkWGZC"/>
      <point x="40" y="0" type="line" smooth="yes" identifier="RTOJW56qXy"/>
      <point x="40" y="1211" type="line" smooth="yes" identifier="7g7f8Wu7K4"/>
      <point x="140" y="1600" type="line" smooth="yes" identifier="R4lklfJsHA"/>
      <point x="90" y="1550" type="line"/>
    </contour>
  </outline>
</glyph>
<glyph name="M.shadow" format="2">
  <advance width="1115"/>
  <outline>
    <contour>
      <point x="-10" y="-50" type="line"/>
      <point x="203" y="-50" type="line"/>
      <point x="253" y="0" type="line"/>
      <point x="253" y="1237" type="line"/>
      <point x="337" y="175" type="line"/>
      <point x="748" y="175" type="line"/>
      <point x="798" y="225" type="line" identifier="spdoeeCFft"/>
      <point x="882" y="1287" type="line"/>
      <point x="882" y="-50" type="line"/>
      <point x="1095" y="-50" type="line"/>
      <point x="1145" y="0" type="line"/>
      <point x="1145" y="1600" type="line"/>
      <point x="690" y="1600" type="line"/>
      <point x="686" y="1550" type="line"/>
      <point x="686" y="1550" type="line"/>
      <point x="690" y="1600" type="line"/>
      <point x="640" y="1550" type="line"/>
      <point x="569" y="542" type="line"/>
      <point x="495" y="1600" type="line"/>
      <point x="40" y="1600" type="line"/>
      <point x="-10" y="1550" type="line"/>
    </contour>
  </outline>
</glyph>
<glyph name="N.narrow.shadow" format="2">
  <advance width="685"/>
  <outline>
    <contour>
      <point x="476" y="1314" type="line"/>
      <point x="338" y="1314" type="line"/>
      <point x="279" y="1095" type="line"/>
      <point x="325" y="1264" type="line"/>
      <point x="426" y="1264" type="line"/>
      <point x="426" y="-50" type="line"/>
      <point x="665" y="-50" type="line"/>
      <point x="715" y="0" type="line" smooth="yes"/>
      <point x="476" y="0" type="line" smooth="yes"/>
    </contour>
    <contour>
      <point x="284" y="1473" type="line"/>
      <point x="333" y="1600" type="line" smooth="yes"/>
      <point x="283" y="1550" type="line"/>
      <point x="276" y="1532" type="line"/>
      <point x="276" y="1473" type="line"/>
    </contour>
    <contour>
      <point x="40" y="2" type="line" smooth="yes"/>
      <point x="40" y="1600" type="line"/>
      <point x="-10" y="1550" type="line"/>
      <point x="-10" y="-48" type="line"/>
      <point x="229" y="-48" type="line"/>
      <point x="279" y="2" type="line"/>
    </contour>
  </outline>
</glyph>
<glyph name="N.shadow" format="2">
  <advance width="827"/>
  <outline>
    <contour>
      <point x="284" y="1363" type="line" identifier="MEnBDHq6zU"/>
      <point x="258" y="1363" type="line" identifier="wfBbYd10Pm"/>
      <point x="258" y="1084" type="line"/>
      <point x="377" y="-50" type="line"/>
      <point x="807" y="-50" type="line"/>
      <point x="857" y="0" type="line" identifier="uKfuudIUvA"/>
      <point x="427" y="0" type="line" identifier="3Nbopwznvn"/>
    </contour>
    <contour>
      <point x="639" y="237" type="line" identifier="VILP20cFmq"/>
      <point x="639" y="1600" type="line" identifier="MUSJPjCIXg"/>
      <point x="589" y="1550" type="line"/>
      <point x="589" y="457" type="line"/>
      <point x="459" y="1600" type="line" identifier="LL64NQ6WBE"/>
      <point x="614" y="237" type="line" identifier="z5b04GDwRN"/>
    </contour>
    <contour>
      <point x="40" y="0" type="line" identifier="CkwYPPvJLv"/>
      <point x="40" y="1600" type="line" identifier="dzUaaP1sjt"/>
      <point x="-10" y="1550" type="line"/>
      <point x="-10" y="-50" type="line"/>
      <point x="208" y="-50" type="line"/>
      <point x="258" y="0" type="line" identifier="oHTJsN7drZ"/>
    </contour>
  </outline>
</glyph>
<glyph name="N.wide.shadow" format="2">
  <advance width="848"/>
  <outline>
    <contour>
      <point x="315" y="1600" type="line" identifier="LL64NQ6WBE"/>
      <point x="588" y="457" type="line"/>
      <point x="588" y="457" type="line"/>
    </contour>
    <contour>
      <point x="307" y="1279" type="line" identifier="MEnBDHq6zU"/>
      <point x="282" y="1279" type="line" identifier="wfBbYd10Pm"/>
      <point x="282" y="1126" type="line"/>
      <point x="568" y="-50" type="line"/>
      <point x="828" y="-50" type="line"/>
      <point x="878" y="0" type="line" identifier="uKfuudIUvA"/>
      <point x="618" y="0" type="line" identifier="3Nbopwznvn"/>
    </contour>
    <contour>
      <point x="617" y="336" type="line" identifier="z5b04GDwRN"/>
      <point x="638" y="336" type="line" identifier="VILP20cFmq"/>
      <point x="638" y="1600" type="line" identifier="MUSJPjCIXg"/>
      <point x="588" y="1550" type="line"/>
      <point x="588" y="457" type="line"/>
    </contour>
    <contour>
      <point x="42" y="0" type="line" identifier="CkwYPPvJLv"/>
      <point x="42" y="1600" type="line" identifier="dzUaaP1sjt"/>
      <point x="-8" y="1550" type="line"/>
      <point x="-8" y="-50" type="line"/>
      <point x="232" y="-50" type="line"/>
      <point x="282" y="0" type="line" identifier="oHTJsN7drZ"/>
    </contour>
  </outline>
</glyph>
<glyph name="O.shadow" format="2">
  <advance width="687"/>
  <outline>
    <contour>
      <point x="488" y="351" type="line" identifier="SnrsQD5TLy"/>
      <point x="488" y="1376" type="line" identifier="g70r2r6DwY"/>
      <point x="308" y="1376" type="line" identifier="qXlVxK5ShE"/>
      <point x="269" y="1250" type="line" identifier="vdfGLkskOQ"/>
      <point x="293" y="1326" type="line"/>
      <point x="438" y="1326" type="line"/>
      <point x="438" y="301" type="line"/>
      <point x="416" y="230" type="line"/>
      <point x="450" y="230" type="line" identifier="jjd5iRDXWT"/>
    </contour>
    <contour>
      <point x="-20" y="1211" type="line"/>
      <point x="-20" y="-50" type="line"/>
      <point x="592" y="-50" type="line"/>
      <point x="642" y="0" type="line" identifier="dfgNHTgBfR"/>
      <point x="30" y="0" type="line" identifier="U6WibAQAUl"/>
      <point x="30" y="1261" type="line" identifier="kbL68Qh2zr"/>
      <point x="116" y="1600" type="line" identifier="a4Ql951bxG"/>
      <point x="66" y="1550" type="line"/>
    </contour>
  </outline>
</glyph>
<glyph name="P.shadow" format="2">
  <advance width="675"/>
  <outline>
    <contour>
      <point x="279" y="566" type="line"/>
      <point x="671" y="644" type="line"/>
      <point x="721" y="694" type="line" identifier="Tt6D8zYZmU"/>
      <point x="279" y="606" type="line" identifier="hIFVovVRwe"/>
    </contour>
    <contour>
      <point x="279" y="849" type="line" identifier="PIBVN1PGv1"/>
      <point x="431" y="875" type="line"/>
      <point x="431" y="875" type="line"/>
      <point x="481" y="884" type="line" identifier="1WCnzth1GX"/>
      <point x="481" y="1363" type="line" identifier="2c4LCF1E1R"/>
      <point x="279" y="1363" type="line" identifier="IZIZQr2gYJ"/>
      <point x="279" y="1313" type="line"/>
      <point x="431" y="1313" type="line"/>
      <point x="431" y="875" type="line"/>
    </contour>
    <contour>
      <point x="40" y="0" type="line" identifier="EG08jqU5fb"/>
      <point x="40" y="1600" type="line" identifier="eETO5GBD5v"/>
      <point x="-10" y="1550" type="line"/>
      <point x="-10" y="-50" type="line"/>
      <point x="229" y="-50" type="line"/>
      <point x="279" y="0" type="line" identifier="osRzIFK2Cu"/>
    </contour>
  </outline>
</glyph>
<glyph name="P.wide.shadow" format="2">
  <advance width="675"/>
  <outline>
    <contour>
      <point x="721" y="607" type="line" identifier="Tt6D8zYZmU"/>
      <point x="279" y="607" type="line" identifier="hIFVovVRwe"/>
      <point x="279" y="557" type="line"/>
      <point x="671" y="557" type="line"/>
    </contour>
    <contour>
      <point x="431" y="851" type="line"/>
      <point x="481" y="851" type="line" identifier="1WCnzth1GX"/>
      <point x="481" y="1363" type="line" identifier="2c4LCF1E1R"/>
      <point x="279" y="1363" type="line" identifier="IZIZQr2gYJ"/>
      <point x="279" y="1313" type="line"/>
      <point x="431" y="1313" type="line"/>
    </contour>
    <contour>
      <point x="40" y="0" type="line" identifier="EG08jqU5fb"/>
      <point x="40" y="1600" type="line" identifier="eETO5GBD5v"/>
      <point x="-10" y="1550" type="line"/>
      <point x="-10" y="-50" type="line"/>
      <point x="229" y="-50" type="line"/>
      <point x="279" y="0" type="line" identifier="osRzIFK2Cu"/>
    </contour>
  </outline>
</glyph>
<glyph name="Q.shadow" format="2">
  <advance width="695"/>
  <outline>
    <contour>
      <point x="725" y="0" type="line" identifier="dfgNHTgBfR"/>
      <point x="465" y="0" type="line"/>
      <point x="465" y="1" type="line"/>
      <point x="295" y="1" type="line"/>
      <point x="295" y="0" type="line"/>
      <point x="465" y="0" type="line"/>
      <point x="465" y="-50" type="line"/>
      <point x="675" y="-50" type="line"/>
    </contour>
    <contour>
      <point x="486" y="237" type="line" identifier="jjd5iRDXWT"/>
      <point x="486" y="1363" type="line" identifier="g70r2r6DwY"/>
      <point x="309" y="1363" type="line" identifier="qXlVxK5ShE"/>
      <point x="269" y="1169" type="line" identifier="vdfGLkskOQ"/>
      <point x="299" y="1313" type="line"/>
      <point x="436" y="1313" type="line"/>
      <point x="436" y="237" type="line"/>
    </contour>
    <contour>
      <point x="295" y="-196" type="line"/>
      <point x="295" y="0" type="line"/>
      <point x="30" y="0" type="line" identifier="U6WibAQAUl"/>
      <point x="30" y="1173" type="line" identifier="kbL68Qh2zr"/>
      <point x="113" y="1600" type="line" identifier="a4Ql951bxG"/>
      <point x="63" y="1550" type="line"/>
      <point x="-20" y="1123" type="line"/>
      <point x="-20" y="-50" type="line"/>
      <point x="245" y="-50" type="line"/>
      <point x="245" y="-246" type="line"/>
      <point x="415" y="-246" type="line"/>
      <point x="465" y="-196" type="line"/>
    </contour>
  </outline>
</glyph>
<glyph name="R.alt.shadow" format="2">
  <advance width="739"/>
  <outline>
    <contour>
      <point x="759" y="0" type="line"/>
      <point x="677" y="660" type="line"/>
      <point x="700" y="669" type="line"/>
      <point x="750" y="719" type="line"/>
      <point x="673" y="690" type="line"/>
      <point x="759" y="0" type="line"/>
      <point x="541" y="0" type="line"/>
      <point x="471" y="627" type="line"/>
      <point x="300" y="627" type="line"/>
      <point x="299" y="0" type="line"/>
      <point x="59" y="0" type="line"/>
      <point x="59" y="1600" type="line"/>
      <point x="9" y="1550" type="line"/>
      <point x="9" y="-50" type="line"/>
      <point x="249" y="-50" type="line"/>
      <point x="299" y="0" type="line"/>
      <point x="300" y="577" type="line"/>
      <point x="421" y="577" type="line"/>
      <point x="491" y="-50" type="line"/>
      <point x="709" y="-50" type="line"/>
    </contour>
    <contour>
      <point x="510" y="1362" type="line"/>
      <point x="299" y="1362" type="line"/>
      <point x="299" y="1312" type="line"/>
      <point x="460" y="1312" type="line"/>
      <point x="461" y="864" type="line"/>
      <point x="511" y="864" type="line"/>
    </contour>
    <contour>
      <point x="300" y="864" type="line"/>
      <point x="299" y="1312" type="line"/>
      <point x="299" y="1312" type="line"/>
    </contour>
  </outline>
</glyph>
<glyph name="R.shadow" format="2">
  <advance width="696"/>
  <outline>
    <contour>
      <point x="440" y="792" type="line"/>
      <point x="452" y="792" type="line"/>
      <point x="490" y="806" type="line"/>
      <point x="490" y="1363" type="line"/>
      <point x="279" y="1363" type="line"/>
      <point x="279" y="1313" type="line"/>
      <point x="440" y="1313" type="line"/>
    </contour>
    <contour>
      <point x="736" y="0" type="line"/>
      <point x="505" y="0" type="line"/>
      <point x="455" y="544" type="line"/>
      <point x="279" y="544" type="line"/>
      <point x="279" y="494" type="line"/>
      <point x="405" y="494" type="line"/>
      <point x="455" y="-50" type="line"/>
      <point x="686" y="-50" type="line"/>
    </contour>
    <contour>
      <point x="-10" y="-50" type="line"/>
      <point x="229" y="-50" type="line"/>
      <point x="279" y="0" type="line"/>
      <point x="40" y="0" type="line"/>
      <point x="40" y="1600" type="line"/>
      <point x="-10" y="1550" type="line"/>
    </contour>
  </outline>
</glyph>
<glyph name="S.alt.shadow" format="2">
  <advance width="665"/>
  <outline>
    <contour>
      <point x="452" y="1363" type="line" identifier="3ZUkG35meB"/>
      <point x="283" y="1363" type="line"/>
      <point x="274" y="1313" type="line"/>
      <point x="402" y="1313" type="line"/>
      <point x="402" y="1131" type="line"/>
      <point x="641" y="1131" type="line"/>
      <point x="691" y="1181" type="line" identifier="9KDcrfQ5Ui"/>
      <point x="452" y="1181" type="line" identifier="DTOJhFIl15"/>
    </contour>
    <contour>
      <point x="274" y="1313" type="line"/>
      <point x="248" y="1166" type="line"/>
      <point x="274" y="1313" type="line"/>
    </contour>
    <contour>
      <point x="-14" y="1132" type="line"/>
      <point x="-14" y="647" type="line"/>
      <point x="402" y="647" type="line"/>
      <point x="402" y="237" type="line"/>
      <point x="452" y="237" type="line" identifier="9kdl9SYsn8"/>
      <point x="452" y="697" type="line" identifier="yiV6OCBLHg"/>
      <point x="36" y="697" type="line" identifier="3sQ8t8BZ6b"/>
      <point x="36" y="1182" type="line"/>
      <point x="122" y="1600" type="line"/>
      <point x="72" y="1550" type="line"/>
    </contour>
    <contour>
      <point x="38" y="0" type="line" identifier="09VlJ0BjUX"/>
      <point x="38" y="399" type="line" identifier="ho4DrS0rdW"/>
      <point x="-12" y="349" type="line"/>
      <point x="-12" y="-50" type="line"/>
      <point x="641" y="-50" type="line"/>
      <point x="691" y="0" type="line" identifier="EagWihqFM8"/>
    </contour>
  </outline>
</glyph>
<glyph name="S.shadow" format="2">
  <advance width="639"/>
  <outline>
    <contour>
      <point x="446" y="1364" type="line" identifier="3ZUkG35meB"/>
      <point x="298" y="1364" type="line"/>
      <point x="261" y="1167" type="line"/>
      <point x="289" y="1314" type="line"/>
      <point x="396" y="1314" type="line"/>
      <point x="396" y="1031" type="line"/>
      <point x="635" y="1031" type="line"/>
      <point x="685" y="1081" type="line" identifier="9KDcrfQ5Ui"/>
      <point x="446" y="1081" type="line" identifier="DTOJhFIl15"/>
    </contour>
    <contour>
      <point x="-25" y="1132" type="line"/>
      <point x="-25" y="624" type="line"/>
      <point x="395" y="624" type="line"/>
      <point x="395" y="236" type="line"/>
      <point x="445" y="236" type="line" identifier="9kdl9SYsn8"/>
      <point x="445" y="674" type="line" identifier="yiV6OCBLHg"/>
      <point x="25" y="674" type="line" identifier="3sQ8t8BZ6b"/>
      <point x="25" y="1182" type="line"/>
      <point x="112" y="1600" type="line"/>
      <point x="62" y="1550" type="line"/>
    </contour>
    <contour>
      <point x="25" y="0" type="line" identifier="09VlJ0BjUX"/>
      <point x="25" y="481" type="line" identifier="ho4DrS0rdW"/>
      <point x="-25" y="431" type="line"/>
      <point x="-25" y="-50" type="line"/>
      <point x="635" y="-50" type="line"/>
      <point x="685" y="0" type="line" identifier="EagWihqFM8"/>
    </contour>
  </outline>
</glyph>
<glyph name="S.wide.shadow" format="2">
  <advance width="609"/>
  <outline>
    <contour>
      <point x="237" y="1166" type="line"/>
      <point x="264" y="1314" type="line"/>
      <point x="605" y="1314" type="line"/>
      <point x="655" y="1364" type="line" identifier="3ZUkG35meB"/>
      <point x="273" y="1364" type="line"/>
    </contour>
    <contour>
      <point x="25" y="0" type="line" identifier="09VlJ0BjUX"/>
      <point x="25" y="236" type="line" identifier="yZDWuX8LLe"/>
      <point x="-25" y="186" type="line"/>
      <point x="-25" y="-50" type="line"/>
      <point x="605" y="-50" type="line"/>
      <point x="655" y="0" type="line" identifier="EagWihqFM8"/>
    </contour>
    <contour>
      <point x="-24" y="1132" type="line"/>
      <point x="-24" y="647" type="line"/>
      <point x="365" y="647" type="line"/>
      <point x="365" y="236" type="line"/>
      <point x="415" y="236" type="line" identifier="9kdl9SYsn8"/>
      <point x="415" y="697" type="line" identifier="yiV6OCBLHg"/>
      <point x="26" y="697" type="line" identifier="3sQ8t8BZ6b"/>
      <point x="26" y="1182" type="line"/>
      <point x="112" y="1600" type="line"/>
      <point x="62" y="1550" type="line"/>
    </contour>
  </outline>
</glyph>
<glyph name="T.shadow" format="2">
  <advance width="600"/>
  <outline>
    <contour>
      <point x="646" y="1363" type="line"/>
      <point x="455" y="1363" type="line" identifier="zTICSjBOe7"/>
      <point x="455" y="1313" type="line"/>
      <point x="596" y="1313" type="line"/>
    </contour>
    <contour>
      <point x="215" y="0" type="line"/>
      <point x="215" y="1363" type="line" identifier="1xm0mHc9eh"/>
      <point x="24" y="1363" type="line"/>
      <point x="24" y="1600" type="line" identifier="8oS81nStJX"/>
      <point x="-26" y="1550" type="line"/>
      <point x="-26" y="1313" type="line"/>
      <point x="165" y="1313" type="line"/>
      <point x="165" y="-50" type="line"/>
      <point x="405" y="-50" type="line"/>
      <point x="455" y="0" type="line"/>
    </contour>
  </outline>
</glyph>
<glyph name="U.shadow" format="2">
  <advance width="684"/>
  <outline>
    <contour>
      <point x="30" y="413" type="line" smooth="yes"/>
      <point x="30" y="1600" type="line" smooth="yes"/>
      <point x="-20" y="1550" type="line"/>
      <point x="-20" y="363" type="line"/>
      <point x="97" y="-50" type="line"/>
      <point x="664" y="-50" type="line"/>
      <point x="714" y="0" type="line" smooth="yes"/>
      <point x="147" y="0" type="line" smooth="yes"/>
    </contour>
    <contour>
      <point x="475" y="1600" type="line" smooth="yes"/>
      <point x="425" y="1550" type="line"/>
      <point x="425" y="237" type="line"/>
      <point x="475" y="237" type="line"/>
    </contour>
  </outline>
</glyph>
<glyph name="W.shadow" format="2">
  <advance width="1044"/>
  <outline>
    <contour>
      <point x="794" y="363" type="line"/>
      <point x="761" y="237" type="line"/>
      <point x="798" y="237" type="line" smooth="yes" identifier="oee4nqI8Wl"/>
      <point x="844" y="413" type="line" smooth="yes" identifier="WWvGwSpq0g"/>
      <point x="844" y="1600" type="line" identifier="JfSFAkWGZC"/>
      <point x="794" y="1550" type="line"/>
    </contour>
    <contour>
      <point x="396" y="409" type="line"/>
      <point x="395" y="387" type="line"/>
      <point x="350" y="237" type="line"/>
      <point x="385" y="237" type="line" identifier="GlWB6PG54Z"/>
      <point x="445" y="437" type="line"/>
      <point x="446" y="459" type="line"/>
      <point x="446" y="1450" type="line"/>
      <point x="396" y="1400" type="line"/>
    </contour>
    <contour>
      <point x="-10" y="-50" type="line"/>
      <point x="437" y="-50" type="line"/>
      <point x="483" y="-4" type="line"/>
      <point x="483" y="-50" type="line"/>
      <point x="932" y="-50" type="line"/>
      <point x="982" y="0" type="line" smooth="yes" identifier="R4lklfJsHA"/>
      <point x="533" y="0" type="line" smooth="yes" identifier="Pkl7cZ37MU"/>
      <point x="533" y="186" type="line"/>
      <point x="528" y="186" type="line"/>
      <point x="487" y="0" type="line" smooth="yes" identifier="rCeQLyjlsN"/>
      <point x="40" y="0" type="line" smooth="yes" identifier="ZqTZqAY3uY"/>
      <point x="40" y="1600" type="line" smooth="yes" identifier="5LJg4ajoG6"/>
      <point x="-10" y="1550" type="line"/>
    </contour>
  </outline>
</glyph>
<glyph name="X.shadow" format="2">
  <advance width="693"/>
  <outline>
    <contour>
      <point x="440" y="921" type="line"/>
      <point x="437" y="918" type="line"/>
      <point x="490" y="967" type="line"/>
      <point x="490" y="1600" type="line"/>
      <point x="440" y="1550" type="line"/>
    </contour>
    <contour>
      <point x="435" y="681" type="line"/>
      <point x="328" y="681" type="line"/>
      <point x="269" y="628" type="line"/>
      <point x="269" y="623" type="line"/>
      <point x="278" y="631" type="line"/>
      <point x="385" y="631" type="line"/>
      <point x="444" y="578" type="line"/>
      <point x="444" y="-50" type="line"/>
      <point x="683" y="-50" type="line"/>
      <point x="733" y="0" type="line"/>
      <point x="494" y="0" type="line"/>
      <point x="494" y="628" type="line"/>
    </contour>
    <contour>
      <point x="-16" y="851" type="line"/>
      <point x="66" y="750" type="line"/>
      <point x="66" y="748" type="line"/>
      <point x="-20" y="644" type="line"/>
      <point x="-20" y="-50" type="line"/>
      <point x="219" y="-50" type="line"/>
      <point x="269" y="0" type="line"/>
      <point x="30" y="0" type="line"/>
      <point x="30" y="694" type="line"/>
      <point x="116" y="798" type="line"/>
      <point x="116" y="800" type="line"/>
      <point x="34" y="901" type="line"/>
      <point x="34" y="1600" type="line"/>
      <point x="-16" y="1550" type="line"/>
    </contour>
  </outline>
</glyph>
<glyph name="Y.alt" format="2">
  <advance width="746"/>
  <outline>
    <contour>
      <point x="36" y="0" type="line"/>
      <point x="706" y="0" type="line" identifier="oOtn61SmRY"/>
      <point x="706" y="1600" type="line" identifier="8OglXgblhr"/>
      <point x="467" y="1600" type="line" identifier="db0bPhBdaU"/>
      <point x="467" y="920" type="line" identifier="MTAeavIVWY"/>
      <point x="264" y="920" type="line" identifier="lggLiivmLt"/>
      <point x="264" y="1600" type="line" identifier="UPaHY3UudR"/>
      <point x="24" y="1600" type="line" identifier="ZnCDQVdtyD"/>
      <point x="24" y="683" type="line" identifier="uqAJBjDIOT"/>
      <point x="467" y="683" type="line" identifier="7JgTtdb0jg"/>
      <point x="467" y="236" type="line"/>
      <point x="281" y="236" type="line"/>
      <point x="281" y="498" type="line"/>
      <point x="36" y="498" type="line"/>
    </contour>
  </outline>
</glyph>
<glyph name="Y.alt.shadow" format="2">
  <advance width="676"/>
  <outline>
    <contour>
      <point x="-26" y="633" type="line"/>
      <point x="417" y="633" type="line"/>
      <point x="417" y="236" type="line"/>
      <point x="467" y="236" type="line"/>
      <point x="467" y="683" type="line" identifier="7JgTtdb0jg"/>
      <point x="24" y="683" type="line" identifier="uqAJBjDIOT"/>
      <point x="24" y="1600" type="line" identifier="ZnCDQVdtyD"/>
      <point x="-26" y="1550" type="line"/>
    </contour>
    <contour>
      <point x="417" y="920" type="line"/>
      <point x="467" y="920" type="line" identifier="MTAeavIVWY"/>
      <point x="467" y="1600" type="line" identifier="db0bPhBdaU"/>
      <point x="417" y="1550" type="line"/>
    </contour>
    <contour>
      <point x="36" y="0" type="line"/>
      <point x="36" y="498" type="line"/>
      <point x="-14" y="448" type="line"/>
      <point x="-14" y="-50" type="line"/>
      <point x="656" y="-50" type="line"/>
      <point x="706" y="0" type="line" identifier="oOtn61SmRY"/>
    </contour>
  </outline>
</glyph>
<glyph name="Y.shadow" format="2">
  <advance width="668"/>
  <outline>
    <contour>
      <point x="489" y="617" type="line"/>
      <point x="664" y="689" type="line"/>
      <point x="714" y="739" type="line" identifier="YbKEFhFR3q"/>
      <point x="489" y="647" type="line" identifier="rvzWMWl6O1"/>
    </contour>
    <contour>
      <point x="372" y="907" type="line" identifier="9ncbEH2hEb"/>
      <point x="425" y="929" type="line"/>
      <point x="425" y="929" type="line"/>
      <point x="475" y="950" type="line" identifier="Jw55i2s2Mm"/>
      <point x="475" y="1600" type="line" identifier="spI4xe8t4f"/>
      <point x="425" y="1550" type="line"/>
      <point x="425" y="929" type="line"/>
    </contour>
    <contour>
      <point x="250" y="0" type="line" identifier="XKjckKJ7m9"/>
      <point x="250" y="647" type="line" identifier="3Kveia3O9h"/>
      <point x="24" y="739" type="line" identifier="k3vH9oxqcN"/>
      <point x="24" y="1600" type="line" identifier="fJXhpKV79E"/>
      <point x="-26" y="1550" type="line"/>
      <point x="-26" y="689" type="line"/>
      <point x="200" y="597" type="line"/>
      <point x="200" y="-50" type="line"/>
      <point x="439" y="-50" type="line"/>
      <point x="489" y="0" type="line" identifier="WihjL321cU"/>
    </contour>
  </outline>
</glyph>
<glyph name="Y.wide.shadow" format="2">
  <advance width="680"/>
  <outline>
    <contour>
      <point x="37" y="0" type="line"/>
      <point x="37" y="236" type="line"/>
      <point x="-13" y="186" type="line"/>
      <point x="-13" y="-50" type="line"/>
      <point x="656" y="-50" type="line"/>
      <point x="706" y="0" type="line" identifier="oOtn61SmRY"/>
    </contour>
    <contour>
      <point x="417" y="919" type="line"/>
      <point x="467" y="919" type="line" identifier="MTAeavIVWY"/>
      <point x="467" y="1600" type="line" identifier="db0bPhBdaU"/>
      <point x="417" y="1550" type="line"/>
    </contour>
    <contour>
      <point x="-25" y="632" type="line"/>
      <point x="417" y="632" type="line"/>
      <point x="417" y="236" type="line"/>
      <point x="467" y="236" type="line"/>
      <point x="467" y="682" type="line" identifier="7JgTtdb0jg"/>
      <point x="25" y="682" type="line" identifier="uqAJBjDIOT"/>
      <point x="25" y="1600" type="line" identifier="ZnCDQVdtyD"/>
      <point x="-25" y="1550" type="line"/>
    </contour>
  </outline>
</glyph>
<glyph name="Z.shadow" format="2">
  <advance width="672"/>
  <outline>
    <contour>
      <point x="-23" y="1090" type="line"/>
      <point x="193" y="1090" type="line"/>
      <point x="243" y="1140" type="line"/>
      <point x="27" y="1140" type="line" identifier="LQ9fBsTy9K"/>
      <point x="27" y="1600" type="line" identifier="svlFvrau4c"/>
      <point x="-23" y="1550" type="line"/>
    </contour>
    <contour>
      <point x="24" y="0" type="line"/>
      <point x="24" y="424" type="line" identifier="teVKnpBcVb"/>
      <point x="477" y="1296" type="line"/>
      <point x="477" y="1364" type="line"/>
      <point x="243" y="1364" type="line"/>
      <point x="243" y="1314" type="line"/>
      <point x="427" y="1314" type="line"/>
      <point x="427" y="1246" type="line"/>
      <point x="-26" y="374" type="line"/>
      <point x="-26" y="-50" type="line"/>
      <point x="662" y="-50" type="line"/>
      <point x="712" y="0" type="line" identifier="pzdvPTirLJ"/>
    </contour>
    <contour>
      <point x="423" y="236" type="line"/>
      <point x="473" y="236" type="line"/>
      <point x="473" y="495" type="line"/>
      <point x="423" y="445" type="line"/>
    </contour>
  </outline>
</glyph>
<glyph name="Z.wide.shadow" format="2">
  <advance width="674"/>
  <outline>
    <contour>
      <point x="24" y="0" type="line"/>
      <point x="24" y="425" type="line" identifier="teVKnpBcVb"/>
      <point x="474" y="1320" type="line"/>
      <point x="474" y="1364" type="line"/>
      <point x="27" y="1364" type="line"/>
      <point x="27" y="1600" type="line" identifier="svlFvrau4c"/>
      <point x="-23" y="1550" type="line"/>
      <point x="-23" y="1314" type="line"/>
      <point x="424" y="1314" type="line"/>
      <point x="424" y="1270" type="line"/>
      <point x="-26" y="375" type="line"/>
      <point x="-26" y="-50" type="line"/>
      <point x="664" y="-50" type="line"/>
      <point x="714" y="0" type="line" identifier="pzdvPTirLJ"/>
    </contour>
  </outline>
</glyph>
<glyph name="comma.shadow" format="2">
  <advance width="184"/>
  <outline>
    <contour>
      <point x="155" y="-210" type="line"/>
      <point x="119" y="-210" type="line"/>
      <point x="119" y="0" type="line"/>
      <point x="-16" y="0" type="line"/>
      <point x="-16" y="174" type="line"/>
      <point x="12" y="228" type="line"/>
      <point x="-38" y="178" type="line"/>
      <point x="-66" y="124" type="line"/>
      <point x="-66" y="-50" type="line"/>
      <point x="69" y="-50" type="line"/>
      <point x="69" y="-260" type="line"/>
      <point x="105" y="-260" type="line"/>
    </contour>
  </outline>
</glyph>
<glyph name="eight.shadow" format="2">
  <advance width="695"/>
  <outline>
    <contour>
      <point x="443" y="682" type="line"/>
      <point x="322" y="682" type="line"/>
      <point x="279" y="632" type="line"/>
      <point x="393" y="632" type="line"/>
      <point x="446" y="570" type="line"/>
      <point x="446" y="236" type="line"/>
      <point x="496" y="236" type="line"/>
      <point x="496" y="620" type="line"/>
    </contour>
    <contour>
      <point x="279" y="632" type="line"/>
      <point x="269" y="620" type="line"/>
      <point x="279" y="632" type="line"/>
    </contour>
    <contour>
      <point x="442" y="927" type="line"/>
      <point x="435" y="918" type="line"/>
      <point x="443" y="918" type="line"/>
      <point x="492" y="977" type="line"/>
      <point x="492" y="1364" type="line"/>
      <point x="273" y="1364" type="line"/>
      <point x="273" y="1314" type="line"/>
      <point x="442" y="1314" type="line"/>
    </contour>
    <contour>
      <point x="-17" y="852" type="line"/>
      <point x="55" y="751" type="line"/>
      <point x="55" y="749" type="line"/>
      <point x="-20" y="645" type="line"/>
      <point x="-20" y="-50" type="line"/>
      <point x="685" y="-50" type="line"/>
      <point x="735" y="0" type="line"/>
      <point x="30" y="0" type="line"/>
      <point x="30" y="695" type="line"/>
      <point x="105" y="799" type="line"/>
      <point x="105" y="801" type="line"/>
      <point x="33" y="902" type="line"/>
      <point x="33" y="1600" type="line"/>
      <point x="-17" y="1550" type="line"/>
    </contour>
  </outline>
</glyph>
<glyph name="five.shadow" format="2">
  <advance width="656"/>
  <outline>
    <contour>
      <point x="263" y="1314" type="line"/>
      <point x="652" y="1314" type="line"/>
      <point x="702" y="1364" type="line" identifier="3ZUkG35meB"/>
      <point x="263" y="1364" type="line" identifier="BcuLfvaQKC"/>
    </contour>
    <contour>
      <point x="-26" y="663" type="line"/>
      <point x="412" y="663" type="line"/>
      <point x="412" y="236" type="line"/>
      <point x="462" y="236" type="line" identifier="9kdl9SYsn8"/>
      <point x="462" y="713" type="line" identifier="yiV6OCBLHg"/>
      <point x="24" y="713" type="line" identifier="3sQ8t8BZ6b"/>
      <point x="24" y="1600" type="line" identifier="F4sQEYelA8"/>
      <point x="-26" y="1550" type="line"/>
    </contour>
    <contour>
      <point x="25" y="0" type="line" identifier="09VlJ0BjUX"/>
      <point x="25" y="445" type="line" identifier="ho4DrS0rdW"/>
      <point x="-25" y="395" type="line"/>
      <point x="-25" y="-50" type="line"/>
      <point x="652" y="-50" type="line"/>
      <point x="702" y="0" type="line" identifier="EagWihqFM8"/>
    </contour>
  </outline>
</glyph>
<glyph name="five.wide.shadow" format="2">
  <advance width="648"/>
  <outline>
    <contour>
      <point x="263" y="1313" type="line"/>
      <point x="642" y="1313" type="line"/>
      <point x="692" y="1363" type="line" identifier="3ZUkG35meB"/>
      <point x="263" y="1363" type="line" identifier="BcuLfvaQKC"/>
    </contour>
    <contour>
      <point x="25" y="0" type="line" identifier="09VlJ0BjUX"/>
      <point x="25" y="237" type="line" identifier="yZDWuX8LLe"/>
      <point x="-25" y="187" type="line"/>
      <point x="-25" y="-50" type="line"/>
      <point x="642" y="-50" type="line"/>
      <point x="692" y="0" type="line" identifier="EagWihqFM8"/>
    </contour>
    <contour>
      <point x="-26" y="632" type="line"/>
      <point x="403" y="632" type="line"/>
      <point x="403" y="237" type="line"/>
      <point x="453" y="237" type="line" identifier="9kdl9SYsn8"/>
      <point x="453" y="682" type="line" identifier="yiV6OCBLHg"/>
      <point x="24" y="682" type="line" identifier="3sQ8t8BZ6b"/>
      <point x="24" y="1600" type="line" identifier="F4sQEYelA8"/>
      <point x="-26" y="1550" type="line"/>
    </contour>
  </outline>
</glyph>
<glyph name="four.shadow" format="2">
  <advance width="704"/>
  <outline>
    <contour>
      <point x="750" y="678" type="line"/>
      <point x="684" y="678" type="line"/>
      <point x="684" y="628" type="line"/>
      <point x="700" y="628" type="line"/>
    </contour>
    <contour>
      <point x="445" y="0" type="line"/>
      <point x="445" y="678" type="line"/>
      <point x="24" y="678" type="line"/>
      <point x="24" y="979" type="line"/>
      <point x="102" y="1679" type="line"/>
      <point x="52" y="1629" type="line"/>
      <point x="-26" y="929" type="line"/>
      <point x="-26" y="628" type="line"/>
      <point x="395" y="628" type="line"/>
      <point x="395" y="-50" type="line"/>
      <point x="634" y="-50" type="line"/>
      <point x="684" y="0" type="line"/>
    </contour>
    <contour>
      <point x="395" y="915" type="line"/>
      <point x="445" y="915" type="line"/>
      <point x="445" y="1600" type="line"/>
      <point x="395" y="1550" type="line"/>
    </contour>
  </outline>
</glyph>
<glyph name="one.narrow.shadow" format="2">
  <advance width="404"/>
  <outline>
    <contour>
      <point x="434" y="0" type="line" identifier="5nmxQXofSG"/>
      <point x="195" y="0" type="line"/>
      <point x="195" y="1363" type="line"/>
      <point x="24" y="1363" type="line"/>
      <point x="24" y="1600" type="line"/>
      <point x="-26" y="1550" type="line"/>
      <point x="-26" y="1313" type="line"/>
      <point x="145" y="1313" type="line"/>
      <point x="145" y="-50" type="line"/>
      <point x="384" y="-50" type="line"/>
    </contour>
  </outline>
</glyph>
<glyph name="one.shadow" format="2">
  <advance width="477"/>
  <outline>
    <contour>
      <point x="26" y="0" type="line"/>
      <point x="26" y="237" type="line"/>
      <point x="-24" y="187" type="line"/>
      <point x="-24" y="-50" type="line"/>
      <point x="473" y="-50" type="line"/>
      <point x="523" y="0" type="line" identifier="CURJAw79Zl"/>
    </contour>
    <contour>
      <point x="-24" y="1313" type="line"/>
      <point x="105" y="1313" type="line"/>
      <point x="105" y="237" type="line"/>
      <point x="155" y="237" type="line"/>
      <point x="155" y="1363" type="line"/>
      <point x="26" y="1363" type="line"/>
      <point x="26" y="1600" type="line"/>
      <point x="-24" y="1550" type="line"/>
    </contour>
  </outline>
</glyph>
<glyph name="period.shadow" format="2">
  <advance width="192"/>
  <outline>
    <contour>
      <point x="204" y="0" type="line" identifier="1m237t4hyw"/>
      <point x="58" y="0" type="line" identifier="S4rO5KuHiL"/>
      <point x="58" y="149" type="line"/>
      <point x="86" y="211" type="line" identifier="zfocDyDTCM"/>
      <point x="36" y="161" type="line"/>
      <point x="8" y="99" type="line"/>
      <point x="8" y="-50" type="line"/>
      <point x="154" y="-50" type="line"/>
    </contour>
  </outline>
</glyph>
<glyph name="seven.shadow" format="2">
  <advance width="666"/>
  <outline>
    <contour>
      <point x="-26" y="1018" type="line"/>
      <point x="213" y="1018" type="line"/>
      <point x="263" y="1068" type="line"/>
      <point x="24" y="1068" type="line" identifier="aaDZsh5Mah"/>
      <point x="24" y="1600" type="line" identifier="36ml4xRICt"/>
      <point x="-26" y="1550" type="line"/>
    </contour>
    <contour>
      <point x="246" y="0" type="line"/>
      <point x="470" y="1252" type="line"/>
      <point x="470" y="1363" type="line"/>
      <point x="263" y="1363" type="line"/>
      <point x="263" y="1313" type="line"/>
      <point x="420" y="1313" type="line"/>
      <point x="420" y="1202" type="line"/>
      <point x="196" y="-50" type="line"/>
      <point x="436" y="-50" type="line"/>
      <point x="486" y="0" type="line" identifier="PiPrv7Kcoy"/>
    </contour>
  </outline>
</glyph>
<glyph name="six.shadow" format="2">
  <advance width="674"/>
  <outline>
    <contour>
      <point x="480" y="1364" type="line"/>
      <point x="310" y="1364" type="line"/>
      <point x="297" y="1314" type="line"/>
      <point x="430" y="1314" type="line"/>
      <point x="430" y="1091" type="line"/>
      <point x="669" y="1091" type="line"/>
      <point x="719" y="1141" type="line" identifier="Wuidbv6mUe"/>
      <point x="480" y="1141" type="line"/>
    </contour>
    <contour>
      <point x="481" y="657" type="line"/>
      <point x="269" y="657" type="line"/>
      <point x="269" y="607" type="line"/>
      <point x="431" y="607" type="line"/>
      <point x="431" y="236" type="line"/>
      <point x="481" y="236" type="line"/>
    </contour>
    <contour>
      <point x="297" y="1314" type="line"/>
      <point x="269" y="1205" type="line"/>
      <point x="297" y="1314" type="line"/>
    </contour>
    <contour>
      <point x="30" y="0" type="line" identifier="uiw6aBUf4P"/>
      <point x="30" y="1210" type="line" identifier="KnMArb0tv8"/>
      <point x="104" y="1600" type="line" identifier="xR3pEHbMJx"/>
      <point x="54" y="1550" type="line"/>
      <point x="-20" y="1160" type="line"/>
      <point x="-20" y="-50" type="line"/>
      <point x="670" y="-50" type="line"/>
      <point x="720" y="0" type="line" identifier="jtYkxiUX6G"/>
    </contour>
  </outline>
</glyph>
<glyph name="six.wide.shadow" format="2">
  <advance width="704"/>
  <outline>
    <contour>
      <point x="301" y="1314" type="line"/>
      <point x="280" y="1231" type="line"/>
      <point x="301" y="1314" type="line"/>
      <point x="680" y="1314" type="line"/>
      <point x="730" y="1364" type="line"/>
      <point x="314" y="1364" type="line"/>
      <point x="301" y="1314" type="line"/>
    </contour>
    <contour>
      <point x="491" y="672" type="line"/>
      <point x="280" y="672" type="line"/>
      <point x="280" y="622" type="line"/>
      <point x="441" y="622" type="line"/>
      <point x="441" y="236" type="line"/>
      <point x="491" y="236" type="line"/>
    </contour>
    <contour>
      <point x="40" y="0" type="line" identifier="uiw6aBUf4P"/>
      <point x="40" y="1237" type="line" identifier="KnMArb0tv8"/>
      <point x="96" y="1600" type="line" identifier="xR3pEHbMJx"/>
      <point x="46" y="1550" type="line"/>
      <point x="-10" y="1187" type="line"/>
      <point x="-10" y="-50" type="line"/>
      <point x="680" y="-50" type="line"/>
      <point x="730" y="0" type="line" identifier="jtYkxiUX6G"/>
    </contour>
  </outline>
</glyph>
<glyph name="three.shadow" format="2">
  <advance width="674"/>
  <outline>
    <contour>
      <point x="45" y="622" type="line"/>
      <point x="425" y="622" type="line"/>
      <point x="425" y="236" type="line"/>
      <point x="475" y="236" type="line" identifier="xv9CFHiFgB"/>
      <point x="475" y="672" type="line" identifier="Dm8zjmbhNr"/>
      <point x="95" y="672" type="line" identifier="8aKgEELrVU"/>
      <point x="95" y="908" type="line" identifier="lRLJEhXMlO"/>
      <point x="45" y="858" type="line"/>
    </contour>
    <contour>
      <point x="-24" y="1135" type="line"/>
      <point x="216" y="1135" type="line"/>
      <point x="266" y="1185" type="line" identifier="AcE5xKDZfE"/>
      <point x="26" y="1185" type="line" identifier="5lNstGRcSF"/>
      <point x="26" y="1600" type="line" identifier="pE1XSRiy68"/>
      <point x="-24" y="1550" type="line"/>
    </contour>
    <contour>
      <point x="405" y="941" type="line"/>
      <point x="374" y="908" type="line"/>
      <point x="382" y="908" type="line" identifier="iic1IBkDqp"/>
      <point x="381" y="911" type="line"/>
      <point x="455" y="991" type="line" identifier="YUjTrmoWd9"/>
      <point x="455" y="1364" type="line" identifier="RHLvSX2Jv6"/>
      <point x="266" y="1364" type="line" identifier="7ogBYufWpl"/>
      <point x="266" y="1314" type="line"/>
      <point x="405" y="1314" type="line"/>
    </contour>
    <contour>
      <point x="24" y="0" type="line" identifier="O9abUc1nmN"/>
      <point x="24" y="361" type="line" identifier="tVui9PiOjA"/>
      <point x="-26" y="311" type="line"/>
      <point x="-26" y="-50" type="line"/>
      <point x="664" y="-50" type="line"/>
      <point x="714" y="0" type="line" identifier="kMJYMTfXCq"/>
    </contour>
  </outline>
</glyph>
<glyph name="three.wide.shadow" format="2">
  <advance width="604"/>
  <outline>
    <contour>
      <point x="24" y="0" type="line" identifier="O9abUc1nmN"/>
      <point x="24" y="237" type="line" identifier="YajKQV3MHP"/>
      <point x="-26" y="187" type="line"/>
      <point x="-26" y="-50" type="line"/>
      <point x="584" y="-50" type="line"/>
      <point x="634" y="0" type="line" identifier="kMJYMTfXCq"/>
    </contour>
    <contour>
      <point x="-24" y="1308" type="line"/>
      <point x="321" y="1308" type="line"/>
      <point x="321" y="894" type="line"/>
      <point x="294" y="863" type="line"/>
      <point x="302" y="863" type="line" identifier="iic1IBkDqp"/>
      <point x="302" y="865" type="line"/>
      <point x="371" y="944" type="line" identifier="YUjTrmoWd9"/>
      <point x="371" y="1358" type="line" identifier="RHLvSX2Jv6"/>
      <point x="26" y="1358" type="line" identifier="7ogBYufWpl"/>
      <point x="26" y="1600" type="line" identifier="pE1XSRiy68"/>
      <point x="-24" y="1550" type="line"/>
    </contour>
    <contour>
      <point x="36" y="667" type="line"/>
      <point x="345" y="667" type="line"/>
      <point x="345" y="237" type="line"/>
      <point x="395" y="237" type="line" identifier="xv9CFHiFgB"/>
      <point x="395" y="717" type="line" identifier="Dm8zjmbhNr"/>
      <point x="86" y="717" type="line" identifier="8aKgEELrVU"/>
      <point x="86" y="863" type="line" identifier="lRLJEhXMlO"/>
      <point x="36" y="813" type="line"/>
    </contour>
  </outline>
</glyph>
<glyph name="two.shadow" format="2">
  <advance width="663"/>
  <outline>
    <contour>
      <point x="24" y="0" type="line"/>
      <point x="24" y="529" type="line" identifier="teVKnpBcVb"/>
      <point x="459" y="1110" type="line"/>
      <point x="459" y="1364" type="line"/>
      <point x="254" y="1364" type="line"/>
      <point x="254" y="1314" type="line"/>
      <point x="409" y="1314" type="line"/>
      <point x="409" y="1060" type="line"/>
      <point x="-26" y="479" type="line"/>
      <point x="-26" y="-50" type="line"/>
      <point x="659" y="-50" type="line"/>
      <point x="709" y="0" type="line" identifier="pzdvPTirLJ"/>
    </contour>
    <contour>
      <point x="-22" y="1115" type="line"/>
      <point x="204" y="1115" type="line"/>
      <point x="254" y="1165" type="line"/>
      <point x="28" y="1165" type="line" identifier="LQ9fBsTy9K"/>
      <point x="28" y="1600" type="line" identifier="svlFvrau4c"/>
      <point x="-22" y="1550" type="line"/>
    </contour>
  </outline>
</glyph>
<glyph name="zero.shadow" format="2">
  <advance width="703"/>
  <outline>
    <contour>
      <point x="40" y="0" type="line" identifier="4KX3b3mGg4"/>
      <point x="40" y="1600" type="line" identifier="rx6fJSLiri"/>
      <point x="-10" y="1550" type="line"/>
      <point x="-10" y="-50" type="line"/>
      <point x="683" y="-50" type="line"/>
      <point x="733" y="0" type="line" identifier="V2j8wYP0nr"/>
    </contour>
    <contour>
      <point x="443" y="238" type="line"/>
      <point x="493" y="238" type="line"/>
      <point x="493" y="1362" type="line"/>
      <point x="279" y="1362" type="line"/>
      <point x="279" y="1312" type="line"/>
      <point x="443" y="1312" type="line"/>
    </contour>
  </outline>
</glyph>
